<?xml version="1.0" encoding="utf-8"?>
<!-- Generator: Adobe Illustrator 16.0.0, SVG Export Plug-In . SVG Version: 6.00 Build 0)  -->
<!DOCTYPE svg PUBLIC "-//W3C//DTD SVG 1.1//EN" "http://www.w3.org/Graphics/SVG/1.1/DTD/svg11.dtd">
<svg version="1.1" id="Layer_1" xmlns="http://www.w3.org/2000/svg" xmlns:xlink="http://www.w3.org/1999/xlink" x="0px" y="0px"
	 width="162.786px" height="162.785px" viewBox="0 0 162.786 162.785" enable-background="new 0 0 162.786 162.785"
	 xml:space="preserve">
<g>
	<path fill="#353535" d="M136.608,77.786c-1.381-0.258-3.033-0.226-4.957,0.096c-1.925,0.322-5.436,1.045-10.536,2.168
		c-2.706,0.571-5.132,0.935-7.276,1.091c-2.145,0.157-3.995,0.102-5.551-0.166c-1.556-0.267-2.923-0.722-4.101-1.366
		c-0.223-0.122-0.44-0.257-0.657-0.393l15.009,15.009l0.588-0.588c2.522,1.823,5.087,2.886,7.691,3.189
		c2.604,0.304,4.962,0.056,7.069-0.746c2.107-0.801,3.861-1.9,5.262-3.3c2.043-2.043,3.161-4.303,3.354-6.78
		c0.192-2.476-0.528-4.533-2.168-6.172C139.231,78.725,137.989,78.044,136.608,77.786z"/>
	<path fill="#353535" d="M81.393,0L0,81.392l81.393,81.393l81.393-81.393L81.393,0z M146.163,88.224
		c-1.105,2.228-2.633,4.318-4.584,6.27c-2.007,2.007-4.705,3.949-8.092,5.826c-0.368,0.222-0.823,0.512-1.367,0.87
		c-0.543,0.36-0.99,0.713-1.34,1.063c-0.146,0.146-0.265,0.3-0.371,0.458l1.57,1.57l-14.967,14.967l-2.749-2.749l1.692-1.692
		l-15.792-15.792l-0.146,25.741l-23.386-0.158l14.767,14.767l1.692-1.692l2.75,2.751l-14.966,14.966l-2.75-2.749l1.692-1.693
		l-36.711-36.711l-1.693,1.692l-2.75-2.75L53.629,98.21l2.75,2.75l-1.692,1.692l13.382,13.382l23.492,0.16l0.146-25.636
		L79.245,78.095l-1.692,1.692l-2.75-2.75l14.203-14.203l-4.714-4.715c-6.461,6.46-16.934,6.46-23.395,0
		c-6.46-6.46-6.46-16.935,0-23.395c8.521-8.521,22.338-8.522,30.859,0c8.264,8.263,8.488,21.492,0.725,30.057l0.038,0.039
		l-1.692,1.692l7.943,7.944c-0.935-1.425-1.7-3.003-2.246-4.776c-0.912-2.956-1.041-5.984-0.387-9.086
		c0.653-3.103,2.186-5.859,4.598-8.271c1.123-1.123,2.311-2.089,3.562-2.899c0.312-0.239,0.76-0.529,1.339-0.871
		c0.58-0.34,1.063-0.63,1.45-0.87c0.957-0.662,1.639-1.196,2.043-1.602c0.626-0.625,0.963-1.164,1.008-1.615
		c0.047-0.451-0.013-0.98-0.178-1.588l0.855-0.856L121.391,52.6l-1.077,1.077c-3.276-1.804-6.448-2.637-9.513-2.5
		c-3.066,0.139-5.74,1.349-8.023,3.632c-1.123,1.123-1.924,2.376-2.402,3.756c-0.479,1.381-0.57,2.762-0.275,4.143
		c0.295,1.381,0.984,2.614,2.07,3.7c0.627,0.626,1.35,1.137,2.168,1.533c0.819,0.396,2.076,0.63,3.77,0.704
		c1.694,0.074,3.904-0.184,6.628-0.773c3.02-0.699,4.888-1.095,5.605-1.188c3.774-0.865,7.024-1.408,9.749-1.629
		c2.725-0.22,5.201,0.01,7.429,0.69s4.263,1.943,6.103,3.783c1.694,1.694,2.909,3.562,3.646,5.606
		c0.736,2.044,1.012,4.18,0.828,6.407C147.912,83.77,147.268,85.997,146.163,88.224z"/>
</g>
</svg>
